PathFileType	3	(X/Y/Z)	D:\minhoCalibration\240510\subject2_KPNP\preferred\preferred03.trc
DataRate	CameraRate	NumFrames	NumMarkers	Units	OrigDataRate	OrigDataStartFrame	OrigNumFrames
200.0	200.0	33	10	mm	200.0	401	186	
Frame#	Time	Left_Ankle_Outer1			Left_Ankle_Inner1			Left_Knee_Outer1			Left_Knee_Inner1			Left_Wrist1			Right_Wrist1			Right_Knee_Inner1			Right_Knee_Outer1			Right_Ankle_Inner1			Right_Ankle_Outer1			
		X1	Y1	Z1	X2	Y2	Z2	X3	Y3	Z3	X4	Y4	Z4	X5	Y5	Z5	X6	Y6	Z6	X7	Y7	Z7	X8	Y8	Z8	X9	Y9	Z9	X10	Y10	Z10	
401	1.995	-559.58295	124.08508	-715.62146	-558.56708	129.15019	-663.26984	-355.02908	519.37927	-777.2066	-371.87555	507.33655	-681.61194	-409.66125	964.81036	-859.2785	-540.72443	1146.3151	-593.55609	-293.66101	954.86078	-234.3591	-370.53659	1013.6169	-217.56544	-488.04593	609.65729	-77.095345	-553.08966	669.29321	-35.492661
402	2	-558.89325	124.08755	-716.96783	-558.40839	130.52821	-662.54242	-354.34659	519.15021	-777.71722	-371.51624	507.23505	-682.20447	-405.66058	966.9975	-859.44281	-543.71234	1143.8376	-593.7085	-296.56052	947.75024	-234.78867	-374.31046	1005.5475	-217.2852	-493.6427	596.56433	-94.994766	-559.90857	654.95422	-53.341103
403	2.005	-558.30426	124.40913	-718.89203	-557.22937	131.29504	-664.93146	-353.19287	519.61414	-778.55579	-370.91812	507.24255	-682.94226	-402.49649	968.28357	-858.89301	-546.7641	1141.2533	-594.31995	-299.69388	940.31262	-235.43817	-378.24951	997.10919	-217.15099	-499.34903	583.81891	-112.88935	-567.12543	640.51599	-71.045448
404	2.01	-557.49719	124.57493	-720.64374	-558.14661	130.11313	-668.46533	-352.70996	519.74719	-779.10327	-370.33978	507.47937	-683.80023	-398.46945	970.48151	-858.82245	-549.93622	1138.5981	-595.12903	-302.97034	932.50653	-236.18587	-382.43835	988.3924	-217.19211	-505.58133	570.97156	-130.65057	-573.62939	626.63184	-89.084244
405	2.015	-556.69	124.82336	-722.63782	-556.87146	131.99368	-668.65625	-351.716	520.22034	-780.14117	-369.86719	507.68567	-684.66602	-394.56622	972.47644	-858.70233	-553.22479	1135.9386	-595.71875	-306.50754	924.44208	-237.04518	-386.77478	979.36884	-217.40341	-510.89127	558.6087	-149.13872	-579.34454	613.54926	-106.54991
406	2.02	-555.91223	125.16885	-724.81122	-556.74561	132.94749	-669.30353	-351.66235	520.29663	-780.47992	-369.23468	508.03333	-685.66486	-390.75668	974.60065	-857.62903	-556.82361	1133.1781	-596.91138	-310.1929	916.04474	-237.96356	-391.31091	970.04651	-217.82466	-514.81232	547.63	-168.1993	-586.01526	600.06927	-126.13216
407	2.025	-554.95288	125.41305	-726.97754	-557.57489	131.92365	-672.65082	-350.53571	521.34821	-781.40656	-368.04013	508.7077	-686.70941	-386.98169	976.63788	-856.80811	-560.58661	1130.3047	-597.95581	-314.11795	907.32715	-239.19115	-396.06665	960.4234	-218.47232	-520.23035	535.27924	-187.03311	-591.78778	587.32465	-144.36356
408	2.03	-554.05219	125.7692	-729.24109	-555.34979	133.48697	-673.92761	-349.46085	522.20825	-782.25543	-367.61276	509.02283	-687.49939	-383.26385	978.68604	-855.85193	-564.1402	1127.4504	-599.20288	-318.18866	898.40997	-240.5266	-400.97195	950.42426	-219.36459	-524.85168	524.57898	-205.37978	-597.62439	574.2829	-163.36958
409	2.035	-553.04779	126.04797	-731.49609	-555.80518	132.93506	-677.13	-349.22754	522.61237	-782.40112	-366.89194	509.48523	-688.3302	-379.57355	980.71429	-854.82019	-567.99384	1124.6265	-601.39703	-322.51636	889.16302	-242.19633	-406.10278	940.14905	-220.5347	-527.30365	514.04248	-225.76466	-602.59906	562.07532	-182.16261
410	2.04	-552.01807	126.24023	-733.77966	-555.11713	134.28116	-677.73804	-348.0636	523.49481	-782.81818	-366.27213	509.93961	-689.02826	-376.04562	982.59473	-853.59857	-571.46912	1121.7531	-603.07922	-327.00232	879.63336	-244.00282	-411.28809	929.56049	-222.05525	-532.82196	502.91568	-243.19962	-607.49463	550.16608	-200.76257
411	2.045	-550.93237	126.54877	-736.21875	-554.58545	133.62473	-682.54596	-347.04657	524.26312	-782.98456	-365.61148	510.39868	-689.62872	-372.68323	984.36975	-852.40167	-574.66254	1118.9152	-605.32434	-331.71329	869.87537	-246.02481	-416.5654	918.41705	-224.00069	-535.86841	492.65356	-262.40244	-612.00842	538.50934	-219.09146
412	2.05	-549.77045	126.82645	-738.67725	-555.08008	132.45575	-686.76312	-345.47598	525.3775	-782.97192	-365.25998	510.83713	-689.95062	-369.45816	986.06537	-851.20007	-577.57562	1116.1244	-607.30847	-336.6514	859.80786	-248.41908	-421.87329	907.28363	-226.46049	-539.46692	482.68976	-281.05035	-616.54083	526.98663	-237.39879
413	2.055	-548.57599	127.02303	-741.20441	-554.21204	133.2753	-688.58179	-344.48373	525.57086	-782.52716	-364.98834	511.30093	-690.13281	-366.45139	987.64923	-850.08789	-580.22211	1113.4338	-609.36853	-341.73029	849.52838	-250.98825	-427.80936	895.79443	-229.31305	-541.52942	473.47928	-300.16214	-620.96613	515.33954	-256.22464
414	2.06	-547.37854	127.12166	-743.82538	-553.27789	135.18443	-688.1618	-343.05231	526.04187	-781.93414	-365.27817	511.68835	-690.11334	-363.59943	989.12769	-848.88214	-582.61633	1110.7499	-611.25677	-346.98346	838.91669	-253.89516	-433.62177	883.93237	-232.33281	-545.9234	463.20776	-317.28287	-624.82269	504.28021	-275.13129
415	2.065	-546.09515	126.8859	-746.03326	-553.33972	133.14894	-694.58838	-341.26886	526.78784	-781.10498	-365.58301	512.06873	-689.91858	-361.0033	990.41937	-847.75574	-584.87231	1108.4249	-613.23431	-352.50372	828.07599	-257.05682	-439.8009	872.15387	-235.58647	-547.84216	454.16437	-336.02301	-628.79333	493.3822	-293.43982
416	2.07	-544.9057	127.11932	-749.11243	-553.03168	134.1042	-695.21375	-340.30051	526.6709	-779.70624	-365.99542	512.47223	-689.30713	-358.45694	991.68567	-846.74475	-586.83075	1105.9751	-615.10626	-358.13528	817.02936	-260.58499	-445.98666	859.90857	-239.36417	-550.30298	445.08469	-353.64694	-632.16919	482.78693	-312.05203
417	2.075	-543.58875	127.0603	-751.85638	-552.04242	135.1666	-697.21765	-338.84677	526.91638	-778.27826	-366.56204	512.79877	-688.49884	-356.46542	992.67511	-845.4812	-588.59534	1103.5958	-616.83533	-363.99521	805.73254	-264.46454	-452.06866	847.62244	-243.9277	-552.20081	436.04279	-371.52896	-635.53571	471.94778	-331.92889
418	2.08	-542.17212	126.51847	-754.00763	-552.98615	132.62216	-703.60583	-337.54874	527.06238	-776.58154	-367.50311	512.95441	-687.53607	-354.12192	993.65509	-844.62274	-590.13397	1101.2743	-618.29651	-369.86301	794.23193	-268.69666	-458.86423	835.12378	-248.04521	-554.55963	426.80917	-388.59695	-639.04987	461.48483	-350.26605
419	2.085	-541.08014	126.77482	-757.09863	-551.62604	134.69627	-702.41168	-336.27994	527.21112	-774.72784	-368.66315	513.10126	-686.53796	-351.89862	994.58612	-843.71246	-591.70819	1099.1134	-619.81866	-375.98138	782.55524	-273.35147	-465.3746	822.59363	-253.07884	-557.2041	417.57266	-405.08551	-641.86951	451.05478	-368.21799
420	2.09	-539.85773	126.42291	-759.56689	-552.09058	133.27222	-706.28516	-334.91605	527.37183	-772.87537	-370.68683	513.41028	-686.0954	-350.01453	995.33636	-842.67505	-593.26135	1097.004	-621.2533	-382.03125	770.63281	-278.36679	-471.85629	810.06018	-258.61145	-559.26807	408.52994	-421.77069	-644.6756	440.82816	-386.57434
421	2.095	-538.89795	126.13374	-761.77936	-552.43616	132.05428	-711.75916	-333.57812	527.42468	-771.02319	-371.75226	513.4043	-684.69525	-347.69644	995.914	-841.96936	-594.82178	1095.0564	-622.72809	-388.20795	758.68365	-283.91339	-478.29993	797.68213	-264.50311	-561.42029	399.5954	-438.32797	-647.54468	430.65115	-405.16367
422	2.1	-538.00848	125.83257	-763.86456	-552.8869	131.26086	-714.66748	-332.5506	527.35132	-769.04474	-373.71075	513.43549	-683.83362	-345.97708	996.69476	-840.91663	-596.17767	1092.7244	-623.97925	-394.42035	746.62823	-289.95508	-484.59882	785.32629	-270.78949	-564.14777	390.49377	-454.23853	-650.58374	420.94485	-420.24213
423	2.105	-537.38354	125.54115	-765.61316	-552.30151	132.40041	-713.78162	-331.5296	527.25854	-767.3053	-375.45358	513.6311	-683.20685	-343.98053	997.45758	-839.91846	-597.75586	1090.3451	-625.42682	-400.58771	734.49762	-296.44885	-490.81189	773.25629	-277.27917	-565.01013	382.26111	-471.11008	-653.66559	411.45038	-435.39136
424	2.11	-536.95087	125.15617	-767.06543	-553.54523	130.54002	-718.84955	-330.43228	527.0191	-765.74078	-377.60797	513.35956	-682.70337	-342.23108	997.78955	-838.74426	-599.32275	1087.976	-627.02124	-406.7692	722.32941	-303.37241	-496.89185	761.3584	-284.19962	-568.50507	373.56296	-486.78638	-656.53973	401.26337	-453.80301
425	2.115	-536.73492	124.78146	-768.17737	-554.27509	130.34071	-720.27179	-329.45331	526.77393	-764.50519	-379.96213	513.14087	-682.93481	-340.43665	998.44666	-837.41333	-600.81555	1085.2141	-628.48846	-412.84933	710.17493	-310.86316	-502.76279	749.6922	-291.01468	-570.69836	365.12814	-502.53653	-659.73297	391.82019	-468.43005
426	2.12	-536.70551	124.34952	-769.0553	-554.41687	130.35724	-720.05853	-328.91318	526.2959	-763.46124	-381.59537	512.86469	-682.80493	-338.72003	999.24261	-835.86249	-602.42047	1082.6947	-630.06726	-418.95236	698.00842	-318.70499	-508.77286	738.02863	-299.25278	-572.4574	357.04614	-518.59058	-662.4718	382.54099	-484.73474
427	2.125	-536.94611	123.906	-769.65173	-553.81781	130.51437	-718.90851	-328.62231	525.87451	-762.82141	-382.90067	512.56128	-682.78717	-337.27954	999.65118	-834.99438	-603.81427	1079.5889	-631.5625	-424.97281	685.95807	-327.01944	-514.53394	726.4776	-306.90421	-575.24194	348.35156	-533.49591	-664.92841	373.71188	-500.57263
428	2.13	-537.2464	123.41528	-770.08038	-554.19226	130.03041	-719.16406	-328.53918	525.40955	-762.49402	-383.87515	512.26031	-682.93811	-335.77484	1000.7642	-833.26044	-605.56586	1076.8116	-633.34741	-431.16534	674.04309	-335.77042	-520.23108	715.02222	-314.79489	-577.11725	339.90619	-549.04846	-667.44849	363.88971	-519.05481
429	2.135	-537.70886	122.79692	-770.41559	-553.30371	130.71687	-718.01282	-328.88989	524.88434	-762.5119	-384.54697	511.75958	-683.19031	-333.97565	1001.545	-831.51013	-607.14172	1073.7894	-635.13525	-437.42273	662.25159	-345.01001	-526.05322	703.67743	-322.94052	-579.45966	331.8974	-563.42291	-670.32751	354.79706	-534.7804
430	2.14	-538.28857	122.11711	-770.69031	-555.99213	128.52448	-720.67828	-329.40979	524.37646	-762.84155	-384.86267	511.27863	-683.45166	-332.20587	1002.1135	-829.52533	-608.82306	1070.6354	-636.98907	-443.76892	650.73511	-354.27948	-531.92096	691.65973	-332.75388	-581.43872	323.78268	-578.03149	-672.83893	345.87595	-550.93213
431	2.145	-538.9455	121.3757	-770.95941	-555.34521	128.34906	-719.81317	-330.22101	523.79712	-763.28815	-384.94778	510.70923	-683.7135	-330.41916	1002.6304	-826.88556	-610.45404	1067.542	-638.93268	-450.1546	639.49988	-363.68625	-537.96143	681.14429	-340.20282	-582.71411	315.49716	-592.57635	-674.63446	338.98328	-562.29169
432	2.15	-539.61414	120.57524	-771.17554	-556.61639	127.20168	-721.84491	-331.23471	523.12524	-763.79303	-384.88495	510.04315	-683.95044	-328.91138	1003.2486	-824.99603	-612.05676	1064.4188	-640.95667	-456.73083	628.58862	-373.24646	-544.24078	669.44293	-350.54297	-580.73145	309.52524	-606.73309	-677.5769	328.42844	-582.36633
433	2.155	-540.30035	119.65689	-771.39496	-557.50885	126.21571	-721.11627	-332.0863	522.43799	-764.38763	-384.81348	509.26627	-684.13031	-327.5148	1003.6791	-823.10382	-613.66937	1061.3521	-642.95459	-463.49121	618.10797	-383.02481	-550.86139	658.54431	-359.96323	-586.51062	298.93805	-620.8335	-680.1272	320.36505	-599.11884
